{
  "accessors": [
    {
      "bufferView": 1,
      "componentType": 5126,
      "count": 4,
      "max": [
        0.25595098733901978,
        -1.0167160034179688,
        0.65508198738098145
      ],
      "min": [
        0.04278872162103653,
        -1.2151240110397339,
        0.5997244119644165
      ],
      "type": "VEC3"
    },
    {
      "bufferView": 1,
      "byteOffset": 48,
      "componentType": 5126,
      "count": 4,
      "max": [
        0.0026296218857169151,
        0.26618188619613647,
        -0.96391928195953369
      ],
      "min": [
        0.0026296218857169151,
        0.26618188619613647,
        -0.96391928195953369
      ],
      "type": "VEC3"
    },
    {
      "bufferView": 2,
      "componentType": 5126,
      "count": 4,
      "max": [
        0.43043023347854614,
        -0.87036013603210449,
        -0.23917169868946075,
        -1
      ],
      "min": [
        0.43042895197868347,
        -0.87036079168319702,
        -0.23917189240455627,
        -1
      ],
      "type": "VEC4"
    },
    {
      "bufferView": 0,
      "componentType": 5125,
      "count": 6,
      "max": [
        3
      ],
      "min": [
        0
      ],
      "type": "SCALAR"
    },
    {
      "bufferView": 1,
      "byteOffset": 96,
      "componentType": 5126,
      "count": 672,
      "max": [
        1.9462900161743164,
        2.0707008838653564,
        1.1527049541473389
      ],
      "min": [
        -1.2856069803237915,
        -2.5610370635986328,
        -1.0610109567642212
      ],
      "type": "VEC3"
    },
    {
      "bufferView": 1,
      "byteOffset": 8160,
      "componentType": 5126,
      "count": 672,
      "max": [
        0.99973708391189575,
        0.99890702962875366,
        1
      ],
      "min": [
        -0.99973708391189575,
        -0.999167799949646,
        -1
      ],
      "type": "VEC3"
    },
    {
      "bufferView": 2,
      "byteOffset": 64,
      "componentType": 5126,
      "count": 672,
      "max": [
        0.52206796407699585,
        0.94318145513534546,
        0.90256965160369873,
        -1
      ],
      "min": [
        -0.51964861154556274,
        -0.9521491527557373,
        -0.90293669700622559,
        -1
      ],
      "type": "VEC4"
    },
    {
      "bufferView": 0,
      "byteOffset": 24,
      "componentType": 5125,
      "count": 1014,
      "max": [
        671
      ],
      "min": [
        0
      ],
      "type": "SCALAR"
    },
    {
      "bufferView": 1,
      "byteOffset": 16224,
      "componentType": 5126,
      "count": 24,
      "max": [
        2.5781910419464111,
        0.18936499953269958,
        1.1832239627838135
      ],
      "min": [
        -1.2582390308380127,
        -1.119271993637085,
        -0.92999887466430664
      ],
      "type": "VEC3"
    },
    {
      "bufferView": 1,
      "byteOffset": 16512,
      "componentType": 5126,
      "count": 24,
      "max": [
        0.99998778104782104,
        0.98412120342254639,
        0.63844567537307739
      ],
      "min": [
        -0.40408268570899963,
        0.0032630299683660269,
        0.0025134491734206676
      ],
      "type": "VEC3"
    },
    {
      "bufferView": 2,
      "byteOffset": 10816,
      "componentType": 5126,
      "count": 24,
      "max": [
        0.42322304844856262,
        0.72195535898208618,
        0.58058375120162964,
        -1
      ],
      "min": [
        0.00049423991004005075,
        -0.92826586961746216,
        -0.90260863304138184,
        -1
      ],
      "type": "VEC4"
    },
    {
      "bufferView": 0,
      "byteOffset": 4080,
      "componentType": 5125,
      "count": 36,
      "max": [
        23
      ],
      "min": [
        0
      ],
      "type": "SCALAR"
    },
    {
      "bufferView": 1,
      "byteOffset": 16800,
      "componentType": 5126,
      "count": 9672,
      "max": [
        2.827625036239624,
        2.9681429862976074,
        2.7262020111083984
      ],
      "min": [
        -2.3194959163665771,
        -2.708928108215332,
        -2.1452629566192627
      ],
      "type": "VEC3"
    },
    {
      "bufferView": 1,
      "byteOffset": 132864,
      "componentType": 5126,
      "count": 9672,
      "max": [
        1,
        1,
        1
      ],
      "min": [
        -1,
        -1,
        -1
      ],
      "type": "VEC3"
    },
    {
      "bufferView": 2,
      "byteOffset": 11200,
      "componentType": 5126,
      "count": 9672,
      "max": [
        0.52346831560134888,
        0.95257866382598877,
        0.90471822023391724,
        -1
      ],
      "min": [
        -0.86654031276702881,
        -0.95258384943008423,
        -0.90470576286315918,
        -1
      ],
      "type": "VEC4"
    },
    {
      "bufferView": 0,
      "byteOffset": 4224,
      "componentType": 5125,
      "count": 14328,
      "max": [
        9671
      ],
      "min": [
        0
      ],
      "type": "SCALAR"
    },
    {
      "bufferView": 1,
      "byteOffset": 248928,
      "componentType": 5126,
      "count": 9718,
      "max": [
        3.3010220527648926,
        2.3727519512176514,
        2.5655739307403564
      ],
      "min": [
        -1.772102952003479,
        -1.9960789680480957,
        -1.3367799520492554
      ],
      "type": "VEC3"
    },
    {
      "bufferView": 1,
      "byteOffset": 365544,
      "componentType": 5126,
      "count": 9718,
      "max": [
        1,
        1,
        1
      ],
      "min": [
        -1,
        -1,
        -1
      ],
      "type": "VEC3"
    },
    {
      "bufferView": 2,
      "byteOffset": 165952,
      "componentType": 5126,
      "count": 9718,
      "max": [
        0.91418927907943726,
        0.98793822526931763,
        0.99972450733184814,
        1
      ],
      "min": [
        -0.71962231397628784,
        -0.95243573188781738,
        -0.99943435192108154,
        -1
      ],
      "type": "VEC4"
    },
    {
      "bufferView": 0,
      "byteOffset": 61536,
      "componentType": 5125,
      "count": 14904,
      "max": [
        9717
      ],
      "min": [
        0
      ],
      "type": "SCALAR"
    },
    {
      "bufferView": 1,
      "byteOffset": 482160,
      "componentType": 5126,
      "count": 9938,
      "max": [
        3.2085490226745605,
        2.9563829898834229,
        2.4579041004180908
      ],
      "min": [
        -1.599943995475769,
        -1.4865620136260986,
        -1.9159660339355469
      ],
      "type": "VEC3"
    },
    {
      "bufferView": 1,
      "byteOffset": 601416,
      "componentType": 5126,
      "count": 9938,
      "max": [
        0.99980777502059937,
        0.99838888645172119,
        0.99980789422988892
      ],
      "min": [
        -0.99980771541595459,
        -0.99975728988647461,
        -0.99980789422988892
      ],
      "type": "VEC3"
    },
    {
      "bufferView": 2,
      "byteOffset": 321440,
      "componentType": 5126,
      "count": 9938,
      "max": [
        0.66061663627624512,
        0.95258808135986328,
        0.90472835302352905,
        -1
      ],
      "min": [
        -0.52351987361907959,
        -0.95257949829101562,
        -0.90472477674484253,
        -1
      ],
      "type": "VEC4"
    },
    {
      "bufferView": 0,
      "byteOffset": 121152,
      "componentType": 5125,
      "count": 15078,
      "max": [
        9937
      ],
      "min": [
        0
      ],
      "type": "SCALAR"
    },
    {
      "bufferView": 1,
      "byteOffset": 720672,
      "componentType": 5126,
      "count": 5461,
      "max": [
        2.096174955368042,
        2.2157180309295654,
        2.8106861114501953
      ],
      "min": [
        -1.7944660186767578,
        -2.1818559169769287,
        -1.4083280563354492
      ],
      "type": "VEC3"
    },
    {
      "bufferView": 1,
      "byteOffset": 786204,
      "componentType": 5126,
      "count": 5461,
      "max": [
        1,
        1,
        1
      ],
      "min": [
        -1,
        -1,
        -1
      ],
      "type": "VEC3"
    },
    {
      "bufferView": 2,
      "byteOffset": 480448,
      "componentType": 5126,
      "count": 5461,
      "max": [
        0.52652847766876221,
        0.95257842540740967,
        0.90472745895385742,
        -1
      ],
      "min": [
        -0.61646872758865356,
        -0.9525790810585022,
        -0.99371814727783203,
        -1
      ],
      "type": "VEC4"
    },
    {
      "bufferView": 0,
      "byteOffset": 181464,
      "componentType": 5125,
      "count": 8832,
      "max": [
        5460
      ],
      "min": [
        0
      ],
      "type": "SCALAR"
    },
    {
      "bufferView": 1,
      "byteOffset": 851736,
      "componentType": 5126,
      "count": 724,
      "max": [
        2.4802219867706299,
        0.96252739429473877,
        0.21666529774665833
      ],
      "min": [
        -0.78585332632064819,
        -1.3152600526809692,
        -1.1779290437698364
      ],
      "type": "VEC3"
    },
    {
      "bufferView": 1,
      "byteOffset": 860424,
      "componentType": 5126,
      "count": 724,
      "max": [
        0.99865692853927612,
        0.98412114381790161,
        0.99996823072433472
      ],
      "min": [
        -0.99826985597610474,
        -0.98412126302719116,
        -0.99981933832168579
      ],
      "type": "VEC3"
    },
    {
      "bufferView": 2,
      "byteOffset": 567824,
      "componentType": 5126,
      "count": 724,
      "max": [
        0.69114738702774048,
        0.99322307109832764,
        0.95164430141448975,
        1
      ],
      "min": [
        -0.80487459897994995,
        -0.98610299825668335,
        -0.93009811639785767,
        -1
      ],
      "type": "VEC4"
    },
    {
      "bufferView": 0,
      "byteOffset": 216792,
      "componentType": 5125,
      "count": 1014,
      "max": [
        723
      ],
      "min": [
        0
      ],
      "type": "SCALAR"
    },
    {
      "bufferView": 1,
      "byteOffset": 869112,
      "componentType": 5126,
      "count": 8319,
      "max": [
        3.3010210990905762,
        2.9953830242156982,
        2.7316699028015137
      ],
      "min": [
        -2.6662530899047852,
        -3.0010719299316406,
        -2.0678360462188721
      ],
      "type": "VEC3"
    },
    {
      "bufferView": 1,
      "byteOffset": 968940,
      "componentType": 5126,
      "count": 8319,
      "max": [
        1,
        1,
        1
      ],
      "min": [
        -1,
        -1,
        -1
      ],
      "type": "VEC3"
    },
    {
      "bufferView": 2,
      "byteOffset": 579408,
      "componentType": 5126,
      "count": 8319,
      "max": [
        0.52350717782974243,
        0.95257854461669922,
        0.90471982955932617,
        -1
      ],
      "min": [
        -0.52353280782699585,
        -0.9525725245475769,
        -0.90471005439758301,
        -1
      ],
      "type": "VEC4"
    },
    {
      "bufferView": 0,
      "byteOffset": 220848,
      "componentType": 5125,
      "count": 12048,
      "max": [
        8318
      ],
      "min": [
        0
      ],
      "type": "SCALAR"
    },
    {
      "bufferView": 1,
      "byteOffset": 1068768,
      "componentType": 5126,
      "count": 12,
      "max": [
        1.3668930530548096,
        1.1550099849700928,
        2.3673141002655029
      ],
      "min": [
        -1.1020309925079346,
        -1.1222460269927979,
        1.1937309503555298
      ],
      "type": "VEC3"
    },
    {
      "bufferView": 1,
      "byteOffset": 1068912,
      "componentType": 5126,
      "count": 12,
      "max": [
        0.90611088275909424,
        0.98113179206848145,
        -0.1815934032201767
      ],
      "min": [
        -0.066364482045173645,
        -0.29840779304504395,
        -0.43993911147117615
      ],
      "type": "VEC3"
    },
    {
      "bufferView": 2,
      "byteOffset": 712512,
      "componentType": 5126,
      "count": 12,
      "max": [
        0.4797731339931488,
        -0.12819778919219971,
        0.63631844520568848,
        -1
      ],
      "min": [
        -0.043079216033220291,
        -0.79862421751022339,
        -0.86797666549682617,
        -1
      ],
      "type": "VEC4"
    },
    {
      "bufferView": 0,
      "byteOffset": 269040,
      "componentType": 5125,
      "count": 18,
      "max": [
        11
      ],
      "min": [
        0
      ],
      "type": "SCALAR"
    },
    {
      "bufferView": 1,
      "byteOffset": 1069056,
      "componentType": 5126,
      "count": 726,
      "max": [
        2.0470468997955322,
        2.1551029682159424,
        1.4392989873886108
      ],
      "min": [
        -1.526142954826355,
        -2.1418759822845459,
        -1.2170130014419556
      ],
      "type": "VEC3"
    },
    {
      "bufferView": 1,
      "byteOffset": 1077768,
      "componentType": 5126,
      "count": 726,
      "max": [
        1,
        1,
        1
      ],
      "min": [
        -1,
        -1,
        -1
      ],
      "type": "VEC3"
    },
    {
      "bufferView": 2,
      "byteOffset": 712704,
      "componentType": 5126,
      "count": 726,
      "max": [
        0.52233320474624634,
        0.9524962306022644,
        0.90460848808288574,
        -1
      ],
      "min": [
        -0.52233332395553589,
        -0.95214980840682983,
        -0.90469187498092651,
        -1
      ],
      "type": "VEC4"
    },
    {
      "bufferView": 0,
      "byteOffset": 269112,
      "componentType": 5125,
      "count": 1134,
      "max": [
        725
      ],
      "min": [
        0
      ],
      "type": "SCALAR"
    },
    {
      "bufferView": 1,
      "byteOffset": 1086480,
      "componentType": 5126,
      "count": 48,
      "max": [
        2.0448729991912842,
        1.0713419914245605,
        -0.62055552005767822
      ],
      "min": [
        1.3339120149612427,
        -0.8393862247467041,
        -1.0804870128631592
      ],
      "type": "VEC3"
    },
    {
      "bufferView": 1,
      "byteOffset": 1087056,
      "componentType": 5126,
      "count": 48,
      "max": [
        1,
        2.4043690700636944e-06,
        1
      ],
      "min": [
        6.3100429770202027e-07,
        -1.0327229574613739e-05,
        -1.748561970771334e-07
      ],
      "type": "VEC3"
    },
    {
      "bufferView": 2,
      "byteOffset": 724320,
      "componentType": 5126,
      "count": 48,
      "max": [
        1.8711167513174587e-06,
        0.94174563884735107,
        0.58124715089797974,
        -1
      ],
      "min": [
        -0.33636635541915894,
        -0.8137354850769043,
        9.9377248261589557e-06,
        -1
      ],
      "type": "VEC4"
    },
    {
      "bufferView": 0,
      "byteOffset": 273648,
      "componentType": 5125,
      "count": 72,
      "max": [
        47
      ],
      "min": [
        0
      ],
      "type": "SCALAR"
    },
    {
      "bufferView": 1,
      "byteOffset": 1087632,
      "componentType": 5126,
      "count": 177,
      "max": [
        2.0448729991912842,
        2.0489199161529541,
        1.364109992980957
      ],
      "min": [
        -1.3263750076293945,
        -2.6923339366912842,
        -1.0720030069351196
      ],
      "type": "VEC3"
    },
    {
      "bufferView": 1,
      "byteOffset": 1089756,
      "componentType": 5126,
      "count": 177,
      "max": [
        1,
        1,
        1
      ],
      "min": [
        -0.99951499700546265,
        -0.99999940395355225,
        -0.93210077285766602
      ],
      "type": "VEC3"
    },
    {
      "bufferView": 2,
      "byteOffset": 725088,
      "componentType": 5126,
      "count": 177,
      "max": [
        0.52062427997589111,
        0.94174700975418091,
        0.90388977527618408,
        -1
      ],
      "min": [
        -0.51947498321533203,
        -0.95251023769378662,
        -0.89849519729614258,
        -1
      ],
      "type": "VEC4"
    },
    {
      "bufferView": 0,
      "byteOffset": 273936,
      "componentType": 5125,
      "count": 249,
      "max": [
        176
      ],
      "min": [
        0
      ],
      "type": "SCALAR"
    }
  ],
  "asset": {
    "generator": "Sketchfab (OSG glTF plugin)",
    "version": "2.0"
  },
  "bufferViews": [
    {
      "buffer": 0,
      "byteLength": 274932,
      "byteOffset": 0,
      "name": "floatBufferViews",
      "target": 34963
    },
    {
      "buffer": 0,
      "byteLength": 1091880,
      "byteOffset": 274932,
      "byteStride": 12,
      "name": "floatBufferViews",
      "target": 34962
    },
    {
      "buffer": 0,
      "byteLength": 727920,
      "byteOffset": 1366812,
      "byteStride": 16,
      "name": "floatBufferViews",
      "target": 34962
    }
  ],
  "buffers": [
    {
      "byteLength": 2094732,
      "uri": "scene.bin"
    }
  ],
  "materials": [
    {
      "doubleSided": true,
      "emissiveFactor": [
        1,
        0.40638861423327732,
        0
      ],
      "name": "mat14",
      "pbrMetallicRoughness": {
        "baseColorFactor": [
          1,
          0.47738394350000002,
          0.024031858999999999,
          1
        ],
        "metallicFactor": 0,
        "roughnessFactor": 1
      }
    },
    {
      "doubleSided": true,
      "name": "mat15",
      "pbrMetallicRoughness": {
        "baseColorFactor": [
          0.051607123525859631,
          0.14112750196560725,
          0.21015150233939883,
          1
        ],
        "metallicFactor": 0,
        "roughnessFactor": 1
      }
    },
    {
      "doubleSided": true,
      "name": "mat16",
      "pbrMetallicRoughness": {
        "baseColorFactor": [
          0.30903695049253388,
          0.39758666509041957,
          0.49024557621982529,
          1
        ],
        "metallicFactor": 0.60537347559999999,
        "roughnessFactor": 0.4921875
      }
    },
    {
      "doubleSided": true,
      "emissiveFactor": [
        0,
        0,
        0
      ],
      "name": "mat17",
      "pbrMetallicRoughness": {
        "baseColorFactor": [
          0.058280699940924635,
          0.077578922463148334,
          0.10659598737191546,
          1
        ],
        "metallicFactor": 0.2334222561,
        "roughnessFactor": 0.97389481710000003
      }
    },
    {
      "doubleSided": true,
      "emissiveFactor": [
        0,
        0,
        0
      ],
      "name": "mat21",
      "pbrMetallicRoughness": {
        "baseColorFactor": [
          1,
          1,
          1,
          1
        ],
        "metallicFactor": 0,
        "roughnessFactor": 1
      }
    },
    {
      "doubleSided": true,
      "emissiveFactor": [
        0.66225241300000004,
        1,
        1
      ],
      "name": "mat23",
      "pbrMetallicRoughness": {
        "baseColorFactor": [
          0.48951981709999998,
          0.48951981709999998,
          0.48951981709999998,
          1
        ],
        "metallicFactor": 0.33708079270000002,
        "roughnessFactor": 1
      }
    },
    {
      "alphaCutoff": 0.5,
      "alphaMode": "BLEND",
      "doubleSided": true,
      "emissiveFactor": [
        0.08067835368399999,
        0.11202393286005172,
        0.1391006098
      ],
      "name": "mat24",
      "occlusionFactor": 0.47732469509999997,
      "pbrMetallicRoughness": {
        "baseColorFactor": [
          0.92000000000000004,
          0.94999999999999996,
          0.93999999999999995,
          0.33365091460000001
        ],
        "metallicFactor": 0.94683689019999995,
        "roughnessFactor": 0.016577743899999997
      }
    },
    {
      "doubleSided": true,
      "emissiveFactor": [
        0,
        1,
        1
      ],
      "name": "mat3",
      "pbrMetallicRoughness": {
        "baseColorFactor": [
          0.5,
          0.87,
          0.92000000000000004,
          1
        ],
        "metallicFactor": 0.2943978659,
        "roughnessFactor": 1
      }
    },
    {
      "alphaCutoff": 0.5,
      "alphaMode": "BLEND",
      "doubleSided": true,
      "emissiveFactor": [
        0,
        1,
        1
      ],
      "name": "mat4",
      "occlusionFactor": 1,
      "pbrMetallicRoughness": {
        "baseColorFactor": [
          0,
          0.73999999999999999,
          0.82999999999999996,
          0.90072408540000004
        ],
        "metallicFactor": 0,
        "roughnessFactor": 1
      }
    }
  ],
  "meshes": [
    {
      "primitives": [
        {
          "attributes": {
            "NORMAL": 1,
            "POSITION": 0,
            "TANGENT": 2
          },
          "indices": 3,
          "material": 4,
          "mode": 4
        }
      ]
    },
    {
      "primitives": [
        {
          "attributes": {
            "NORMAL": 5,
            "POSITION": 4,
            "TANGENT": 6
          },
          "indices": 7,
          "material": 0,
          "mode": 4
        }
      ]
    },
    {
      "primitives": [
        {
          "attributes": {
            "NORMAL": 9,
            "POSITION": 8,
            "TANGENT": 10
          },
          "indices": 11,
          "material": 1,
          "mode": 4
        }
      ]
    },
    {
      "primitives": [
        {
          "attributes": {
            "NORMAL": 13,
            "POSITION": 12,
            "TANGENT": 14
          },
          "indices": 15,
          "material": 2,
          "mode": 4
        }
      ]
    },
    {
      "primitives": [
        {
          "attributes": {
            "NORMAL": 17,
            "POSITION": 16,
            "TANGENT": 18
          },
          "indices": 19,
          "material": 2,
          "mode": 4
        }
      ]
    },
    {
      "primitives": [
        {
          "attributes": {
            "NORMAL": 21,
            "POSITION": 20,
            "TANGENT": 22
          },
          "indices": 23,
          "material": 2,
          "mode": 4
        }
      ]
    },
    {
      "primitives": [
        {
          "attributes": {
            "NORMAL": 25,
            "POSITION": 24,
            "TANGENT": 26
          },
          "indices": 27,
          "material": 2,
          "mode": 4
        }
      ]
    },
    {
      "primitives": [
        {
          "attributes": {
            "NORMAL": 29,
            "POSITION": 28,
            "TANGENT": 30
          },
          "indices": 31,
          "material": 3,
          "mode": 4
        }
      ]
    },
    {
      "primitives": [
        {
          "attributes": {
            "NORMAL": 33,
            "POSITION": 32,
            "TANGENT": 34
          },
          "indices": 35,
          "material": 3,
          "mode": 4
        }
      ]
    },
    {
      "primitives": [
        {
          "attributes": {
            "NORMAL": 37,
            "POSITION": 36,
            "TANGENT": 38
          },
          "indices": 39,
          "material": 5,
          "mode": 4
        }
      ]
    },
    {
      "primitives": [
        {
          "attributes": {
            "NORMAL": 41,
            "POSITION": 40,
            "TANGENT": 42
          },
          "indices": 43,
          "material": 6,
          "mode": 4
        }
      ]
    },
    {
      "primitives": [
        {
          "attributes": {
            "NORMAL": 45,
            "POSITION": 44,
            "TANGENT": 46
          },
          "indices": 47,
          "material": 7,
          "mode": 4
        }
      ]
    },
    {
      "primitives": [
        {
          "attributes": {
            "NORMAL": 49,
            "POSITION": 48,
            "TANGENT": 50
          },
          "indices": 51,
          "material": 8,
          "mode": 4
        }
      ]
    }
  ],
  "nodes": [
    {
      "children": [
        1
      ],
      "name": "RootNode (gltf orientation matrix)",
      "rotation": [
        -0.70710678118654746,
        -0,
        -0,
        0.70710678118654757
      ]
    },
    {
      "children": [
        2
      ],
      "name": "RootNode (model correction matrix)"
    },
    {
      "children": [
        16
      ],
      "name": "model.obj.cleaner.materialmerger.gles"
    },
    {
      "mesh": 0,
      "name": ""
    },
    {
      "mesh": 1,
      "name": ""
    },
    {
      "mesh": 2,
      "name": ""
    },
    {
      "mesh": 3,
      "name": ""
    },
    {
      "mesh": 4,
      "name": ""
    },
    {
      "mesh": 5,
      "name": ""
    },
    {
      "mesh": 6,
      "name": ""
    },
    {
      "mesh": 7,
      "name": ""
    },
    {
      "mesh": 8,
      "name": ""
    },
    {
      "mesh": 9,
      "name": ""
    },
    {
      "mesh": 10,
      "name": ""
    },
    {
      "mesh": 11,
      "name": ""
    },
    {
      "mesh": 12,
      "name": ""
    },
    {
      "children": [
        3,
        4,
        5,
        6,
        7,
        8,
        9,
        10,
        11,
        12,
        13,
        14,
        15
      ],
      "name": "Geode"
    }
  ],
  "scene": 0,
  "scenes": [
    {
      "name": "OSG_Scene",
      "nodes": [
        0
      ]
    }
  ]
}

